<?xml version="1.0" encoding="utf-8"?>
<!-- Generator: Adobe Illustrator 26.5.0, SVG Export Plug-In . SVG Version: 6.00 Build 0)  -->
<svg version="1.1" id="Capa_1" xmlns="http://www.w3.org/2000/svg" xmlns:xlink="http://www.w3.org/1999/xlink" x="0px" y="0px"
	 viewBox="0 0 283.5 283.5" style="enable-background:new 0 0 283.5 283.5;" xml:space="preserve">
<style type="text/css">
	.st0{fill:#5D5D5D;}
</style>
<g>
	<path class="st0" d="M47.3,221c-18,0-0.3-18.3-0.3-18.3l46-50.6c4.5-4.9,13.1-12.4,18.2-8.3c5,4.1,11.8,12.5,16.5,17.2l9.5,9.5
		c5.1,4.5,9,0,9,0l9.7-9.6c4.7-4.7,11.5-12.8,16.6-16.6s13.7,3.4,18.1,8.3l45.7,50.5c18,17.7,0.3,17.7,0.3,17.7L47.3,221L47.3,221z
		 M55.1,179.5c-4.5,4.9-11,13.5-15.4,18.4c-5,5.6-10.7,9.9-10.7,0l0.2-98.6c0-6.6-0.2-19.3,4.4-17.1c1.7,0.8,4,2.6,7.1,5.7L78,118.5
		c5.1,4.2,12.4,9.4,14.8,12.8c1.5,2.2,2.2,4.7,0,6.9L55.1,179.5z M155.5,144.4c-5.1,4.2-10.7,10.2-13.6,10.2c-2.9,0-8.5-5.8-13.7-10
		l-81-65.7C42,74.7,33.1,66.3,37.5,64c3.2-1.6,8.8-1.6,8.8-1.6h190.3c17.1,0,8.4,8.5,8.4,8.5L155.5,144.4z M243.7,197.9
		c-4.4-5-11-13.5-15.4-18.4l-37.6-41.3c-2.2-2.2-1.5-4.7,0-6.9c2.4-3.4,9.6-8.6,14.8-12.8l27.9-22.8c5.1-4.2,11.9-11.1,16.4-13.4
		s4.3,10.4,4.4,17.1l0.2,98.6C254.5,207.8,248.7,203.5,243.7,197.9z"/>
</g>
</svg>
