<?xml version="1.0" encoding="utf-8"?>
<!-- Generator: Adobe Illustrator 26.5.0, SVG Export Plug-In . SVG Version: 6.00 Build 0)  -->
<svg version="1.1" id="圖層_1" xmlns="http://www.w3.org/2000/svg" xmlns:xlink="http://www.w3.org/1999/xlink" x="0px" y="0px"
	 viewBox="0 0 283.5 283.5" style="enable-background:new 0 0 283.5 283.5;" xml:space="preserve">
<style type="text/css">
	.st0{fill:#5D5D5D;}
</style>
<path class="st0" d="M65.9,249.2c-13,0-23.5-10.5-23.5-23.5v-99c0-13,10.5-23.5,23.5-23.5s23.5,10.5,23.5,23.5v99.1
	C89.3,238.7,78.8,249.3,65.9,249.2L65.9,249.2z M223.5,118.8h-5V84.6l-5.3-5.3l-39.7-39.7l-5.3-5.3H75.5c-4.2,0-7.5,3.4-7.5,7.5
	v46.5c4.4,0.2,8.8,1.2,12.9,3c1.6,0.7,3.2,1.5,4.6,2.3V51.8h69v36.1c0,5.5,4.5,10,10,10h36.4v20.9h-97.3c0.5,2.6,0.8,5.3,0.8,7.9
	v99.1c0,8.3-2.7,16.4-7.7,23.1h126.8c9.7,0,17.5-7.9,17.6-17.6v-95C241,126.7,233.2,118.8,223.5,118.8L223.5,118.8z M138,167
	c-4.2,0-7.5-3.4-7.5-7.5c0-4.2,3.4-7.5,7.5-7.5l0,0c4.2,0,7.5,3.4,7.5,7.5S142.2,167,138,167z M138,191.4c-4.2,0-7.5-3.4-7.5-7.5
	c0-4.2,3.4-7.5,7.5-7.5l0,0c4.2,0,7.5,3.4,7.5,7.5C145.5,188.1,142.2,191.4,138,191.4z M138,215.9c-4.2,0-7.5-3.4-7.5-7.5
	c0-4.2,3.4-7.5,7.5-7.5l0,0c4.2,0,7.5,3.4,7.5,7.5S142.2,215.9,138,215.9z M168.5,167L168.5,167c-4.2,0-7.6-3.4-7.6-7.5
	c0-4.2,3.4-7.5,7.5-7.5l0,0c4.2,0,7.5,3.4,7.5,7.5C176,163.6,172.6,167,168.5,167L168.5,167z M168.5,191.4L168.5,191.4
	c-4.2,0-7.6-3.4-7.6-7.5c0-4.2,3.4-7.5,7.5-7.5l0,0c4.2,0,7.5,3.4,7.5,7.5C176,188.1,172.6,191.4,168.5,191.4L168.5,191.4z
	 M168.5,215.9L168.5,215.9c-4.2,0-7.6-3.4-7.6-7.5c0-4.2,3.4-7.5,7.5-7.5l0,0c4.2,0,7.5,3.4,7.5,7.5
	C176,212.5,172.6,215.9,168.5,215.9L168.5,215.9z M198.9,167c-4.2,0-7.5-3.4-7.5-7.5c0-4.2,3.4-7.5,7.5-7.5l0,0
	c4.2,0,7.5,3.4,7.5,7.5S203.1,167,198.9,167L198.9,167z M198.9,191.4c-4.2,0-7.5-3.4-7.5-7.5c0-4.2,3.4-7.5,7.5-7.5l0,0
	c4.2,0,7.5,3.4,7.5,7.5C206.4,188.1,203.1,191.4,198.9,191.4L198.9,191.4z M198.9,215.9c-4.2,0-7.5-3.4-7.5-7.5
	c0-4.2,3.4-7.5,7.5-7.5l0,0l0,0c4.2,0,7.5,3.4,7.5,7.5S203.1,215.9,198.9,215.9L198.9,215.9z"/>
</svg>
