<?xml version="1.0" encoding="utf-8"?>
<!-- Generator: Adobe Illustrator 26.5.0, SVG Export Plug-In . SVG Version: 6.00 Build 0)  -->
<svg version="1.1" id="圖層_1" xmlns="http://www.w3.org/2000/svg" xmlns:xlink="http://www.w3.org/1999/xlink" x="0px" y="0px"
	 viewBox="0 0 283.5 283.5" style="enable-background:new 0 0 283.5 283.5;" xml:space="preserve">
<style type="text/css">
	.st0{display:none;}
	.st1{display:inline;fill:#FFFFFF;}
	.st2{display:inline;}
	.st3{fill:#5D5D5D;}
</style>
<g id="圖層_2_1_" class="st0">
	<path class="st1" d="M368.7,117.7v2c0,0.3-0.3,0.5-0.5,0.5h-8c-0.3,0-0.5-0.2-0.5-0.5l0,0l0,0v-12.5c0-0.3,0.2-0.5,0.5-0.5l0,0h2
		c0.3,0,0.5,0.2,0.5,0.5l0,0v9.9h5.5C368.5,117.1,368.7,117.4,368.7,117.7z M386.8,106.7h-2c-0.3,0-0.5,0.2-0.5,0.5l0,0v7.4
		l-5.7-7.7l0,0l0,0l0,0l0,0l0,0l0,0l0,0l0,0l0,0h-2.5c-0.3,0-0.5,0.2-0.5,0.5l0,0v12.3c0,0.3,0.2,0.5,0.5,0.5l0,0h2
		c0.3,0,0.5-0.2,0.6-0.5v-7.4l5.7,7.7c0,0.1,0.1,0.1,0.1,0.1l0,0l0,0h0.1h0.2h2c0.3,0,0.5-0.2,0.5-0.5v-12.4
		C387.3,106.9,387.1,106.7,386.8,106.7z M373,106.7h-2c-0.3,0-0.5,0.2-0.6,0.5v12.5c0,0.3,0.3,0.5,0.6,0.5h2c0.3,0,0.5-0.2,0.5-0.5
		l0,0v-12.5C373.6,106.9,373.3,106.7,373,106.7L373,106.7z M426.8,113.5c0,26.5-21.5,48-48,48s-48-21.5-48-48s21.5-48,48-48
		S426.8,87,426.8,113.5z M401.3,127.1c4.2-4.5,6.1-9.2,6.1-14.3c0-12.7-12.8-23.1-28.6-23.1s-28.6,10.4-28.6,23.2
		c0,11.5,10.2,21.1,23.9,22.9c0.9,0.2,2.2,0.6,2.5,1.4c0.2,0.8,0.3,1.7,0.1,2.6c0,0-0.3,2-0.4,2.4c-0.1,0.7-0.6,2.8,2.5,1.5
		S395.3,134,401.3,127.1L401.3,127.1z M397.9,106.7h-8.1c-0.3,0-0.5,0.2-0.5,0.5l0,0l0,0l0,0v12.5l0,0c0,0.3,0.2,0.5,0.5,0.5l0,0h8
		c0.3,0,0.5-0.2,0.5-0.5v-2c0-0.3-0.2-0.5-0.5-0.5l0,0h-5.4v-2.1h5.5c0.3,0,0.5-0.2,0.5-0.5l0,0v-2c0-0.3-0.2-0.5-0.5-0.5l0,0h-5.5
		V110h5.5c0.3,0,0.5-0.2,0.5-0.5l0,0v-2C398.5,107,398.3,106.7,397.9,106.7L397.9,106.7z"/>
	<path class="st2" d="M343.7,199.5c-8.8-2.4-16.6-0.2-22.9,6.5c-5.2,5.6-7.3,12.3-5.6,19.9c0.9,4.1,2.7,7.9,4.6,11.6
		c4.1,7.8,9.1,15,14.4,22.1c1.1,1.4,2.2,2.8,3.3,4.3c0.2-0.2,0.3-0.3,0.4-0.4c4.9-6,9.4-12.3,13.5-18.9c3-4.8,5.7-9.8,7.6-15.1
		c1.4-4.1,2.1-8.2,1.1-12.5C358,208,352.5,202,343.7,199.5z M337.7,235.2c-7.5,0-13.6-6.1-13.6-13.5c0-7.5,6.1-13.6,13.5-13.6
		c7.5,0,13.6,6.1,13.6,13.5C351.3,229,345.2,235.2,337.7,235.2z"/>
	<path class="st2" d="M337.7,212.3c-5.2,0-9.4,4.2-9.4,9.4c0,5.1,4.2,9.3,9.4,9.3c5.2,0,9.3-4.2,9.3-9.3
		C347,216.5,342.8,212.3,337.7,212.3z"/>
</g>
<g>
	<path class="st3" d="M142.6,256.5c17.3-21.3,33.2-43.6,47.9-67.2c10.6-17.3,20.3-34.6,26.9-53.9c5.7-14.6,7.6-28.9,4.3-44.6
		c-7.6-31.6-26.9-53.5-58.2-61.8S104.3,28.7,82,52.3c-18.6,19.9-25.9,43.6-19.9,70.5c3.3,14.3,9.3,27.9,16.3,40.9
		c14.6,27.9,32.3,53.9,51.2,78.5c4,5.3,7.6,10,11.6,15.3C141.9,257.2,142.3,256.9,142.6,256.5z M93.4,107.9
		c-0.3-25.9,21.3-48.2,47.9-48.2s48.5,21.6,48.5,48.2s-21.6,48.2-48.2,48.2S93.4,134.5,93.4,107.9z"/>
	<path class="st3" d="M141.6,74.7c-18.3,0-33.2,14.6-33.2,33.2c0.3,18,14.6,32.9,33.2,32.9s33.2-14.6,32.9-32.9
		C174.5,89.6,159.9,74.7,141.6,74.7z"/>
</g>
</svg>
