<?xml version="1.0" encoding="utf-8"?>
<!-- Generator: Adobe Illustrator 26.5.0, SVG Export Plug-In . SVG Version: 6.00 Build 0)  -->
<svg version="1.1" id="圖層_1" xmlns="http://www.w3.org/2000/svg" xmlns:xlink="http://www.w3.org/1999/xlink" x="0px" y="0px"
	 viewBox="0 0 283.5 283.5" style="enable-background:new 0 0 283.5 283.5;" xml:space="preserve">
<style type="text/css">
	.st0{fill:#5D5D5D;}
</style>
<path class="st0" d="M194.2,247.4c12.1,1,23.8,0.3,33.3-7.8c5.9-5.2,11.8-11.8,17.3-17.3c4.2-4.2,4.2-8.8,0-13.1
	c-12.7-12.7-26.1-26.1-39.2-38.9c-3.3-3.9-7.8-3.9-11.8,0c-4.2,4.2-8.8,8.2-12.7,12.7c-10.1,10.1-13.7,10.8-25.1,2.6
	c-20.2-14-37.9-31-53.6-50c-2.6-3.3-5.2-6.9-7.2-10.4c-4.2-7.5-3.9-11.8,2.6-18c5.2-5.2,10.1-10.1,15.3-15.3c4.6-4.6,4.6-9.1,0-13.7
	c-13-13-26-26.1-39.1-39.2c-4.6-4.2-9.1-4.6-13.7,0c-3.3,4-7.2,7.6-10.8,10.8c-10.4,9.1-14,20.6-14,35.3c0.3,14,4.6,29.1,12.1,42.5
	c24.2,43.8,58.1,78,100.6,103.8C162.2,240.2,177.5,245.7,194.2,247.4z"/>
</svg>
