<svg xmlns="http://www.w3.org/2000/svg" xmlns:xlink="http://www.w3.org/1999/xlink" width="267.75" height="49.296" viewBox="0 0 267.75 49.296"><defs><clipPath id="a"><rect width="267.75" height="49.296" fill="none"/></clipPath></defs><g clip-path="url(#a)"><path d="M104.941,12.29c0,4.216-2.116,5.281-4.716,5.281h-8.9v3.247h12.483c5.526,0,10.023-3.826,10.023-8.529V0h-8.894Z" transform="translate(68.479 0.001)" fill="#b9bbbc"/><path d="M133.784,15.832a2.64,2.64,0,0,1-2.654,2.619H119.988a2.639,2.639,0,0,1-2.653-2.619V0h-7.746V15c0,3.934,3.923,5.817,8.746,5.817h14.446c4.824,0,8.749-1.883,8.749-5.817V0h-7.746Z" transform="translate(82.17 0.001)" fill="#b9bbbc"/><path d="M159,.315V17.259L141.636,1.2a3.98,3.98,0,0,0-1.76-.963c-2.227-.53-6.123-.373-6.123,2.57v18.01h7.036V4.314l17.4,15.8c1.743,1.482,8.249,1.155,8.249-1.479V.315Z" transform="translate(100.289 0.001)" fill="#b9bbbc"/><rect width="6.887" height="20.762" transform="translate(140.476 0.002)" fill="#fff"/><path d="M82.709,0,72.868,11.009,63.028,0H56.894L69.8,14.44V21h6.135V14.44L88.844,0Z" transform="translate(42.66 0.001)" fill="#fff"/><path d="M58.34,26.532a8.821,8.821,0,0,0-.849-.9,13.388,13.388,0,0,0,2.032-1.331,9.8,9.8,0,0,0,1.669-1.668l.514.2V21.22H60.287l.612.217a11.154,11.154,0,0,1-2.742,2.3,5.733,5.733,0,0,0-.819-.8,9.163,9.163,0,0,0,2.392-1.721H57.7v-1.1h5.244v6.225H61.707V23.739a15.8,15.8,0,0,1-3.367,2.794m-.056,6.139a4.078,4.078,0,0,0-.821-1.042q2.727-.8,3.13-2.535H57.407V27.851h3.269v-1.26h1.253v1.26h3.547v-1.26H66.77v1.26h2.852v1.244H66.77v3.562H65.476V29.095h-3.6a3.573,3.573,0,0,1-.863,1.983,5.979,5.979,0,0,1-2.726,1.594M64.2,26.316a7.809,7.809,0,0,0-.835-.9,13.109,13.109,0,0,0,2.1-1.3,10.523,10.523,0,0,0,1.767-1.623l.57.231v-1.5H66.144l.57.2a11.006,11.006,0,0,1-2.7,2.331,4.859,4.859,0,0,0-.821-.8,8.85,8.85,0,0,0,2.352-1.736H63.736v-1.1h5.3v6.2H67.8V23.464a15.528,15.528,0,0,1-3.6,2.852" transform="translate(42.993 16.523)" fill="#fff"/><path d="M70.338,32.7l-.222-1.258c.317-.04.868-.12,1.655-.248l.808-.129V27.025H70.3V25.837H72.58v-1.3H71.091v-.592c-.2.211-.362.366-.472.463a3.1,3.1,0,0,0-.822-.883,10.275,10.275,0,0,0,2.728-3.779h1.113a15.225,15.225,0,0,1,2.532,2.735l-.835.956v1.1h-1.6v1.3h2.06v1.187h-2.06v3.85l2.324-.39.056,1.187q-1.961.361-5.564.983c-.093.02-.163.033-.21.044m.78-2.2a15.493,15.493,0,0,0-.528-2.577l.891-.217a11.242,11.242,0,0,1,.583,2.521Zm.486-7.108h3.631A15.569,15.569,0,0,0,73.261,21a15.144,15.144,0,0,1-1.655,2.389m3.367,6.891-.877-.259a15.721,15.721,0,0,0,.64-2.448l1.057.29-.264.825c-.25.781-.436,1.313-.556,1.592M78.339,33a2.611,2.611,0,0,0-.376-1.258c.53.047,1.136.071,1.823.071a.689.689,0,0,0,.556-.231,5.221,5.221,0,0,0,.514-2.2q.207-1.855.348-5.952H77.656a9.274,9.274,0,0,1-1.223,1.9,6.882,6.882,0,0,0-1.1-.838,7.625,7.625,0,0,0,1.377-2.116A13.057,13.057,0,0,0,77.6,19.7l1.307.275A16.9,16.9,0,0,1,78.2,22.2h4.27c0,.222,0,.443-.014.665q-.165,4.909-.376,6.891a6.131,6.131,0,0,1-.611,2.577,1.516,1.516,0,0,1-.516.479,1.714,1.714,0,0,1-.639.173A13.535,13.535,0,0,1,78.339,33m-1.753-2.852-.444-1.26q1.543-.344,3.979-1l.124,1.144q-2.1.667-3.659,1.115m.028-4.923h3.339v1.187H76.613Z" transform="translate(52.333 16.177)" fill="#fff"/><path d="M84.987,33V27.134a13.725,13.725,0,0,1-1.781,3.375,8.053,8.053,0,0,0-.625-1.246,10.3,10.3,0,0,0,1.223-1.91,16.369,16.369,0,0,0,1-2.333H82.761V23.761h2.226v-1.94c-.325.067-.807.149-1.447.246l-.306.044a3.514,3.514,0,0,0-.36-1.044A19.051,19.051,0,0,0,87.3,19.9l.737,1.1a13.564,13.564,0,0,1-1.794.552v2.215h1.946V25.02H86.24v.2q.291.32.987,1.173.667.825.877,1.129l-.779,1.056a16.155,16.155,0,0,0-1.085-1.91V33Zm7.582,0V29.524l-4.383.769L87.991,29l4.578-.8V19.722h1.279v8.266l1.517-.259.194,1.258-1.711.3V33Zm-1.753-5.66A7.629,7.629,0,0,0,89.8,26.251a12.75,12.75,0,0,0-1.307-1.071l.819-.781a11.254,11.254,0,0,1,2.38,2.054Zm.348-3.808a9.84,9.84,0,0,0-2.156-2.1l.847-.767a10.184,10.184,0,0,1,2.213,2.012Z" transform="translate(61.92 16.196)" fill="#fff"/><path d="M95.975,32.956a3.985,3.985,0,0,0-.388-1.217q1.071.03,1.363,0a.245.245,0,0,0,.278-.275V28.033q-.961.276-1.529.433l-.334-1.289q.709-.172,1.864-.463V23.806H95.516V22.558h1.711V19.721h1.265v2.823h1.461v1.262H98.493v2.546l1.433-.39.154,1.215c-.528.155-1.059.315-1.587.479v3.808a2.147,2.147,0,0,1-.124.825.854.854,0,0,1-.418.433,4.706,4.706,0,0,1-1.976.233m11.477.071a9.753,9.753,0,0,1-3.6-1.954,11.407,11.407,0,0,1-3.8,1.927,4.935,4.935,0,0,0-.7-1.217,10.951,10.951,0,0,0,3.575-1.637,11.732,11.732,0,0,1-2.156-3.748l.18-.06H100.4V25.108h2.864V23.125H100.15V21.894h3.115V19.721h1.281v2.173h3.213v1.231h-3.213v1.983h1.976l.222-.044.835.348a10.632,10.632,0,0,1-2.714,4.792,9.57,9.57,0,0,0,3.423,1.679,4.189,4.189,0,0,0-.835,1.144M103.9,29.321a8.5,8.5,0,0,0,2.031-2.983h-3.9a9.074,9.074,0,0,0,1.864,2.983" transform="translate(71.505 16.196)" fill="#fff"/><path d="M111.011,33.013V26.382a10.789,10.789,0,0,1-2.088,2,6.081,6.081,0,0,0-.847-1.042,11.7,11.7,0,0,0,3.657-4.546h-3.283V21.53h3.813a16.43,16.43,0,0,0,.583-1.808l1.321.319a1.651,1.651,0,0,1-.054.175q-.278.882-.432,1.315H120.6v1.262h-7.428q-.3.664-.723,1.448H119v7.21a2.339,2.339,0,0,1-.126.867.923.923,0,0,1-.513.464,3.064,3.064,0,0,1-.961.188q-.4.03-1.461.029a4.663,4.663,0,0,0-.4-1.3,15.854,15.854,0,0,0,1.892.031.346.346,0,0,0,.243-.066.319.319,0,0,0,.063-.224V30.19h-5.44v2.823Zm1.279-6.341h5.438V25.413H112.29Zm0,2.389h5.438V27.8H112.29Z" transform="translate(81.037 16.196)" fill="#fff"/><path d="M121.154,32.759V20.076h3.353l.18-.044.877.535q-.738,2.259-1.419,3.879a4.431,4.431,0,0,1,1.239,3.029,2.014,2.014,0,0,1-.612,1.75,1.648,1.648,0,0,1-.779.291,5.41,5.41,0,0,1-1,.027,2.822,2.822,0,0,0-.308-1.229c.2.018.464.027.78.027a.894.894,0,0,0,.458-.129c.2-.135.3-.433.278-.9a4.019,4.019,0,0,0-1.225-2.721c.343-.891.7-1.989,1.059-3.3h-1.657V32.759Zm11.393-.056q-2.811-1.492-3.853-6.1H127.4v4.112l2.364-.463.1,1.171q-1.921.464-4.786,1.116l-.432-1.3c.185-.029.488-.082.9-.158.259-.047.46-.087.6-.115V20.1h6.3v6.5h-2.642a12.72,12.72,0,0,0,.667,1.854,15.394,15.394,0,0,0,1.587-1.606l1.015.738q-1.058,1-2.086,1.808a5.777,5.777,0,0,0,2.42,2.187,4.354,4.354,0,0,0-.863,1.116M127.4,22.769h3.785V21.263H127.4Zm0,2.677h3.785V23.9H127.4Z" transform="translate(90.842 16.451)" fill="#fff"/><path d="M134.6,26.468a6.148,6.148,0,0,0-1.057-.94,9.467,9.467,0,0,0,1.752-1.825,9.317,9.317,0,0,0,1.211-2.1l1.417.421a14.445,14.445,0,0,1-1.431,2.417,10.14,10.14,0,0,1-1.892,2.027m10.168,6.358q-.21-.464-.611-1.173l-.906.042q-6.564.336-8.805.421l-.152-1.406,1.99-.056q.693-1.347,1.377-3a32.292,32.292,0,0,0,1.111-3.085l1.517.375a55.418,55.418,0,0,1-2.56,5.648q1.087-.03,3.423-.129c.982-.04,1.72-.067,2.213-.087q-.824-1.273-1.837-2.562l1.2-.6a29.833,29.833,0,0,1,1.906,2.506,19.939,19.939,0,0,1,1.433,2.375Zm.528-6.633a11.963,11.963,0,0,1-1.891-2.171,17.2,17.2,0,0,1-1.531-2.648H137.56V20.056h5.23a13.623,13.623,0,0,0,1.587,2.881,10.922,10.922,0,0,0,2.1,2.287,6.09,6.09,0,0,0-1.183.969" transform="translate(100.13 16.471)" fill="#fff"/><path d="M154.489,32.535a4.976,4.976,0,0,0-.446-1.462,19.621,19.621,0,0,0,2.086.029.453.453,0,0,0,.273-.086.377.377,0,0,0,.077-.275V21.5h-9.837V20.215H157.8V30.754a2.615,2.615,0,0,1-.15,1,.962.962,0,0,1-.53.521,7.194,7.194,0,0,1-2.628.26m-7.736-9.729h8.222v1.186h-8.222Zm.808,8.281V25.34h6.551v4.691h-5.3v1.056Zm1.251-2.229h4.035V26.5h-4.035Z" transform="translate(109.952 16.601)" fill="#fff"/><path d="M65.046,0c-6.931,0-13.3,3.276-16.081,9.645L34.951,44.039a7.131,7.131,0,0,1-.7,1.253,7.357,7.357,0,0,1-1.5,1.539,7.053,7.053,0,0,1-4.072,1.26l-17.3-.005L10.886,49.3h28a9.374,9.374,0,0,0,4.394-1.056,10.375,10.375,0,0,0,4.689-5.38L62.747,6.571a8.033,8.033,0,0,1,2.5-3.336,8.307,8.307,0,0,1,5.171-1.561l11.6.007L82.7,0Z" transform="translate(8.162 0.001)" fill="#fff"/><path d="M12.138,9.95a15.3,15.3,0,0,0,5.613,1.158l2.324-.016c5.239,4.854,9.011,8.449,9.64,9.033a1.731,1.731,0,0,1,.492.838,1.787,1.787,0,0,1-.11,1.164q-3.543,8.7-7.09,17.387c-.135.333-.271.665-.406,1q4.73.005,9.458.007a4.105,4.105,0,0,0,2.173-.581,4.832,4.832,0,0,0,1.858-2.3c.9-2.047,5.169-12.4,10.872-26.657a17.989,17.989,0,0,1,3.48-5.75A17.274,17.274,0,0,1,58.534.216l0-.018H49.1l0,0a14.072,14.072,0,0,0-7.183,1.688,15.118,15.118,0,0,0-6.352,6.83q-.856,2.1-1.713,4.2C26.924,6.377,21.855,1.642,21.134,1A3.5,3.5,0,0,0,20.062.327,3.357,3.357,0,0,0,18.854.1C17.92.1,10.373.086,0,.1l3.648,3.42H17.068l8.516,7.613a1.063,1.063,0,0,1,.637-.233A1.168,1.168,0,1,1,25.1,12.072a1.184,1.184,0,0,1,.138-.532q-4.194-3.778-8.39-7.558L4.13,3.975q1.533,1.434,3.064,2.87A16.488,16.488,0,0,0,12.138,9.95" transform="translate(0 0.078)" fill="#fff"/><path d="M15.243,7.58a.627.627,0,1,0-.6-.626.616.616,0,0,0,.6.626" transform="translate(10.978 5.196)" fill="#fff"/><line x2="6.177" transform="translate(23.412 40.589)" fill="#fff"/><line x2="6.177" transform="translate(23.412 40.589)" fill="none" stroke="#f27f00" stroke-miterlimit="10" stroke-width="0.25"/></g></svg>